<svg width="240" height="39" xmlns="http://www.w3.org/2000/svg">

 <g>
  <title>Layer 1</title>
  <g id="svg_1" fill="none" fill-rule="nonzero">
   <path stroke="#ffffff" id="svg_2" fill="#ffffff" d="m27.967,0.879c-7.725,-0.004 -15.785,1.736 -23.92,3.993c-1.033,0.208 -2.041,0.884 -2.574,1.72c-0.49,0.788 -0.668,1.579 -0.821,2.408c-0.79,4.428 -0.694,8.776 -0.53,13.594c0.036,1.103 0.2,2.41 0.715,3.205c0.538,0.803 1.46,1.313 2.561,1.48a95.99,95.99 0 0 0 4.232,0.525l-0.312,8.698c-0.048,0.692 0.29,1.267 0.71,1.598c0.376,0.286 0.795,0.413 1.225,0.445c0.86,0.065 1.869,-0.303 2.37,-1.257c2.195,-4.224 3.572,-6.089 6.317,-8.895c7.158,0.176 13.407,-0.222 20.482,-0.745c2.501,-0.065 4.218,-2.11 4.672,-3.743c1.357,-4.232 1.568,-9.456 1.712,-14.737c0.061,-2.093 -0.665,-4.148 -1.95,-5.234c-1.222,-0.991 -2.702,-1.35 -4.058,-1.718c-3.767,-0.853 -7.535,-1.311 -10.831,-1.337zm10.29,3.31c1.358,0.369 2.555,0.724 3.31,1.337c1.26,1.339 1.218,2.23 1.2,3.675c-0.142,5.122 -0.388,10.093 -1.544,13.86c-0.498,1.405 -1.366,2.405 -3.006,2.556c-7.208,0.533 -13.462,0.945 -20.707,0.739a1.032,1.032 0 0 0 -0.763,0.302c-3.044,3.074 -4.601,5.21 -6.921,9.676c-0.054,0.102 -0.171,0.164 -0.315,0.175c-0.097,-0.005 -0.136,-0.08 -0.142,-0.148l0.314,-9.432c0.019,-0.509 -0.401,-0.995 -0.907,-1.05a95.48,95.48 0 0 1 -5.06,-0.62c-0.726,-0.111 -0.994,-0.31 -1.193,-0.606c-0.346,-0.825 -0.338,-1.335 -0.365,-2.128c-0.162,-4.775 -0.242,-8.948 0.491,-13.1c0.068,-0.614 0.298,-1.242 0.542,-1.767c0.404,-0.632 1.023,-0.725 1.644,-0.897c7.956,-2.197 15.74,-3.84 23.068,-3.845c3.592,0.13 7.364,0.49 10.354,1.273zm-27.479,8.09c-1.096,1.313 -0.987,3.096 -0.14,4.29c0.442,0.625 1.132,1.128 1.972,1.242c1.091,0.09 1.783,-0.352 2.53,-0.86c1.353,-1.176 1.49,-3.228 0.461,-4.71c-0.524,-0.755 -1.362,-1.208 -2.218,-1.24c-1.172,0.012 -1.968,0.535 -2.605,1.277l0,0.001zm11.856,-1.072c-1.092,0.035 -1.975,0.791 -2.514,1.607c-0.617,0.933 -0.977,2.101 -0.478,3.246c0.96,2.203 4.277,2.176 5.6,-0.063c0.61,-1.032 0.454,-2.205 0,-3.056c-0.452,-0.85 -1.136,-1.543 -2.131,-1.702a2.494,2.494 0 0 0 -0.477,-0.032zm9.625,0.207c-0.34,-0.008 -0.69,0.024 -1.018,0.111c-1.312,0.35 -2.429,1.704 -2.26,3.437c0.086,0.872 0.487,1.722 1.21,2.308c0.723,0.585 1.773,0.847 2.88,0.62c1.272,-0.26 2.06,-1.285 2.323,-2.275c0.263,-0.99 0.197,-1.999 -0.414,-2.817a3.47,3.47 0 0 0 -2.72,-1.384l-0.001,0zm-18.965,1.623c0.245,0.002 0.438,0.08 0.637,0.366c0.445,0.642 0.321,1.615 -0.128,2.005c-0.447,0.39 -0.726,0.424 -0.922,0.398c-0.196,-0.027 -0.395,-0.162 -0.573,-0.414c-0.34,-0.48 -0.44,-1.256 0.007,-1.81c0.238,-0.316 0.675,-0.513 0.98,-0.545l-0.001,0zm9.483,0.223c0.038,0.006 0.464,0.253 0.668,0.636c0.204,0.383 0.242,0.739 0.048,1.066c-0.577,0.976 -1.804,0.712 -1.99,0.287c-0.07,-0.162 -0.017,-0.813 0.32,-1.32c0.335,-0.509 0.757,-0.7 0.954,-0.67l0,0.001zm10.564,0.748c0.062,0.083 0.213,0.64 0.096,1.082c-0.118,0.442 -0.31,0.715 -0.78,0.811c-0.602,0.124 -0.94,0 -1.193,-0.207c-0.254,-0.205 -0.425,-0.552 -0.462,-0.923c-0.09,-0.92 0.24,-1.133 0.764,-1.273c0.61,-0.15 1.3,0.112 1.575,0.51z"/>
   <path stroke="#ffffff" id="svg_3" fill="#ffffff" d="m57.61,4.996c0.016,-0.26 0.111,-0.494 0.287,-0.701a0.875,0.875 0 0 1 0.701,-0.31l6.826,0c0.23,0 0.467,0.096 0.712,0.287a0.883,0.883 0 0 1 0.368,0.724l0,10.893l11.421,0l0,-10.893c0,-0.276 0.096,-0.513 0.287,-0.712c0.192,-0.2 0.44,-0.3 0.747,-0.3l6.734,0c0.306,0 0.574,0.077 0.804,0.23c0.23,0.154 0.345,0.399 0.345,0.736l0,32.15c0,0.337 -0.1,0.59 -0.3,0.758c-0.198,0.169 -0.459,0.253 -0.78,0.253l-6.803,0c-0.306,0 -0.555,-0.084 -0.747,-0.253c-0.191,-0.168 -0.287,-0.42 -0.287,-0.758l0,-13.053l-11.421,0l0,13.053c0,0.322 -0.104,0.57 -0.31,0.747c-0.207,0.176 -0.487,0.264 -0.84,0.264l-6.756,0c-0.643,0 -0.972,-0.299 -0.988,-0.896l0,-32.219zm62.875,32.725c-0.199,0.168 -0.41,0.275 -0.632,0.321a3.123,3.123 0 0 1 -0.631,0.07l-3.47,0c-0.276,0 -0.514,-0.05 -0.713,-0.15c-0.2,-0.1 -0.368,-0.234 -0.506,-0.402a2.384,2.384 0 0 1 -0.344,-0.575a4.884,4.884 0 0 1 -0.23,-0.666l-0.712,-2.942c-0.23,0.475 -0.563,1.015 -1,1.62a8.495,8.495 0 0 1 -1.666,1.7c-0.674,0.53 -1.479,0.974 -2.413,1.334c-0.935,0.36 -2.007,0.54 -3.218,0.54c-1.746,0 -3.332,-0.337 -4.757,-1.011a10.904,10.904 0 0 1 -3.642,-2.758c-1.003,-1.164 -1.781,-2.524 -2.332,-4.08c-0.552,-1.554 -0.828,-3.213 -0.828,-4.974l0,-15.053c0,-0.582 0.127,-1.022 0.38,-1.321c0.252,-0.299 0.654,-0.448 1.206,-0.448l5.308,0c0.66,0 1.111,0.11 1.356,0.333c0.245,0.222 0.368,0.655 0.368,1.298l0,14.96c0,0.66 0.15,1.284 0.448,1.874c0.299,0.59 0.693,1.11 1.184,1.562c0.49,0.452 1.045,0.809 1.666,1.069c0.62,0.26 1.252,0.39 1.896,0.39c0.551,0 1.122,-0.13 1.712,-0.39a6.361,6.361 0 0 0 1.631,-1.046c0.498,-0.436 0.908,-0.95 1.23,-1.54c0.322,-0.59 0.482,-1.214 0.482,-1.872l0,-14.938c0,-0.26 0.05,-0.52 0.15,-0.781c0.1,-0.26 0.249,-0.46 0.448,-0.598c0.199,-0.122 0.387,-0.206 0.563,-0.252c0.176,-0.046 0.38,-0.07 0.609,-0.07l5.194,0c0.658,0 1.133,0.162 1.424,0.483c0.291,0.322 0.437,0.751 0.437,1.287l0,25.716c0,0.29 -0.065,0.559 -0.195,0.804s-0.31,0.437 -0.54,0.574l0.137,-0.068zm26.681,-3.172c-0.414,0.414 -0.87,0.858 -1.367,1.333c-0.498,0.475 -1.046,0.92 -1.643,1.333a9.3,9.3 0 0 1 -1.93,1.023a6.097,6.097 0 0 1 -2.23,0.402c-2.083,0 -4.002,-0.39 -5.757,-1.172a13.777,13.777 0 0 1 -4.527,-3.206c-1.264,-1.356 -2.252,-2.953 -2.964,-4.792c-0.713,-1.838 -1.069,-3.814 -1.069,-5.929c0,-2.13 0.356,-4.11 1.069,-5.94c0.712,-1.83 1.7,-3.424 2.964,-4.78a13.635,13.635 0 0 1 4.527,-3.194c1.755,-0.774 3.674,-1.161 5.757,-1.161c0.843,0 1.613,0.123 2.31,0.368a8.51,8.51 0 0 1 1.907,0.942c0.575,0.383 1.103,0.816 1.586,1.298c0.482,0.483 0.938,0.954 1.367,1.414l0,-10.503c0,-0.49 0.15,-0.903 0.448,-1.24c0.299,-0.338 0.747,-0.506 1.345,-0.506l5.17,0c0.2,0 0.41,0.042 0.632,0.126c0.222,0.085 0.425,0.203 0.61,0.357c0.183,0.153 0.332,0.337 0.447,0.551c0.115,0.215 0.173,0.452 0.173,0.712l0,34.357c0,1.18 -0.62,1.77 -1.862,1.77l-4.504,0c-0.306,0 -0.544,-0.04 -0.712,-0.116a1.13,1.13 0 0 1 -0.426,-0.333a2.319,2.319 0 0 1 -0.31,-0.551a17.13,17.13 0 0 0 -0.344,-0.77l-0.667,-1.793zm-13.214,-11.008a8.39,8.39 0 0 0 0.471,2.839c0.314,0.88 0.762,1.643 1.345,2.286a6.384,6.384 0 0 0 2.102,1.528c0.82,0.376 1.728,0.563 2.724,0.563c0.98,0 1.903,-0.176 2.769,-0.528a7.058,7.058 0 0 0 2.263,-1.46a7.256,7.256 0 0 0 1.552,-2.194c0.39,-0.843 0.609,-1.747 0.655,-2.712l0,-0.322a7.26,7.26 0 0 0 -0.552,-2.803a7.427,7.427 0 0 0 -1.528,-2.344a7.242,7.242 0 0 0 -2.298,-1.597a6.977,6.977 0 0 0 -2.861,-0.586c-0.996,0 -1.904,0.195 -2.724,0.586c-0.82,0.39 -1.52,0.923 -2.102,1.597a7.236,7.236 0 0 0 -1.345,2.344a8.35,8.35 0 0 0 -0.47,2.803l-0.001,0zm48.72,11.008c-0.414,0.414 -0.87,0.858 -1.368,1.333c-0.498,0.475 -1.046,0.92 -1.643,1.333a9.3,9.3 0 0 1 -1.93,1.023a6.097,6.097 0 0 1 -2.23,0.402c-2.083,0 -4.002,-0.39 -5.756,-1.172a13.777,13.777 0 0 1 -4.528,-3.206c-1.263,-1.356 -2.252,-2.953 -2.964,-4.792c-0.712,-1.838 -1.069,-3.814 -1.069,-5.929c0,-2.13 0.357,-4.11 1.069,-5.94s1.7,-3.424 2.964,-4.78a13.635,13.635 0 0 1 4.528,-3.194c1.754,-0.774 3.673,-1.161 5.756,-1.161c0.843,0 1.613,0.123 2.31,0.368a8.51,8.51 0 0 1 1.907,0.942c0.575,0.383 1.103,0.816 1.586,1.298c0.483,0.483 0.938,0.954 1.367,1.414l0,-10.503c0,-0.49 0.15,-0.903 0.448,-1.24c0.3,-0.338 0.747,-0.506 1.345,-0.506l5.17,0c0.2,0 0.41,0.042 0.632,0.126c0.223,0.085 0.426,0.203 0.61,0.357c0.183,0.153 0.333,0.337 0.448,0.551c0.114,0.215 0.172,0.452 0.172,0.712l0,34.357c0,1.18 -0.62,1.77 -1.862,1.77l-4.504,0c-0.306,0 -0.544,-0.04 -0.712,-0.116a1.13,1.13 0 0 1 -0.425,-0.333a2.319,2.319 0 0 1 -0.31,-0.551a17.13,17.13 0 0 0 -0.345,-0.77l-0.667,-1.793l0.001,0zm-13.215,-11.008a8.39,8.39 0 0 0 0.471,2.839c0.315,0.88 0.763,1.643 1.345,2.286a6.384,6.384 0 0 0 2.103,1.528c0.82,0.376 1.727,0.563 2.723,0.563c0.98,0 1.903,-0.176 2.769,-0.528a7.058,7.058 0 0 0 2.264,-1.46a7.256,7.256 0 0 0 1.55,-2.194c0.391,-0.843 0.61,-1.747 0.656,-2.712l0,-0.322a7.26,7.26 0 0 0 -0.552,-2.803a7.427,7.427 0 0 0 -1.528,-2.344a7.242,7.242 0 0 0 -2.298,-1.597a6.977,6.977 0 0 0 -2.861,-0.586c-0.996,0 -1.904,0.195 -2.723,0.586c-0.82,0.39 -1.521,0.923 -2.103,1.597a7.236,7.236 0 0 0 -1.345,2.344a8.35,8.35 0 0 0 -0.47,2.803l-0.001,0zm28.153,-21.533c0,-0.49 0.122,-0.903 0.367,-1.24c0.246,-0.338 0.667,-0.506 1.264,-0.506l5.63,0c0.154,0 0.315,0.042 0.483,0.126a1.7,1.7 0 0 1 0.471,0.357c0.146,0.153 0.268,0.337 0.368,0.551c0.1,0.215 0.15,0.452 0.15,0.712l0,34.334c0,0.582 -0.165,1.022 -0.495,1.321c-0.329,0.299 -0.754,0.448 -1.275,0.448l-5.332,0c-0.597,0 -1.018,-0.15 -1.264,-0.448c-0.245,-0.299 -0.367,-0.74 -0.367,-1.321l0,-34.334zm38.7,32.61a15.31,15.31 0 0 1 -4.55,2.907a13.87,13.87 0 0 1 -5.355,1.046c-2.1,0 -4.083,-0.383 -5.952,-1.15a15.494,15.494 0 0 1 -4.918,-3.182a15.273,15.273 0 0 1 -3.355,-4.792c-0.828,-1.838 -1.241,-3.837 -1.241,-5.998c0,-1.348 0.164,-2.654 0.494,-3.918a15.45,15.45 0 0 1 1.402,-3.55a15.055,15.055 0 0 1 2.206,-3.045a13.957,13.957 0 0 1 2.907,-2.379a14.327,14.327 0 0 1 3.493,-1.54a14.084,14.084 0 0 1 3.975,-0.551c1.272,0 2.505,0.169 3.7,0.506c1.195,0.337 2.318,0.812 3.367,1.424c1.05,0.613 2.01,1.349 2.884,2.207a14.896,14.896 0 0 1 2.252,2.815a13.58,13.58 0 0 1 1.46,3.263c0.344,1.157 0.517,2.348 0.517,3.573c0,0.797 -0.012,1.448 -0.035,1.954c-0.023,0.505 -0.142,0.908 -0.356,1.206c-0.215,0.3 -0.57,0.506 -1.069,0.62c-0.498,0.116 -1.23,0.173 -2.194,0.173l-16.546,0c0.153,0.98 0.463,1.8 0.93,2.46a5.842,5.842 0 0 0 1.62,1.573c0.613,0.391 1.264,0.67 1.954,0.84a8.24,8.24 0 0 0 1.953,0.252c0.552,0 1.118,-0.058 1.7,-0.172a12.179,12.179 0 0 0 1.69,-0.46a9.557,9.557 0 0 0 1.493,-0.667c0.452,-0.252 0.816,-0.517 1.092,-0.792c0.245,-0.2 0.456,-0.349 0.632,-0.449c0.176,-0.1 0.364,-0.149 0.563,-0.149c0.2,0 0.402,0.07 0.61,0.207a4.8,4.8 0 0 1 0.7,0.597l2.436,2.758c0.168,0.2 0.276,0.38 0.322,0.54c0.046,0.161 0.069,0.326 0.069,0.494c0,0.307 -0.085,0.571 -0.253,0.793a2.89,2.89 0 0 1 -0.598,0.586l0.001,0zm-11.054,-19.143c-0.598,0 -1.176,0.119 -1.735,0.356a6.547,6.547 0 0 0 -1.575,0.954c-0.49,0.398 -0.93,0.85 -1.321,1.356a8.315,8.315 0 0 0 -0.954,1.54l11.743,0a13.536,13.536 0 0 0 -1.045,-1.655a7.081,7.081 0 0 0 -1.287,-1.333a5.558,5.558 0 0 0 -1.655,-0.896c-0.62,-0.215 -1.344,-0.322 -2.171,-0.322z"/>
  </g>
 </g>
</svg>